<svg width="29" height="33" viewBox="0 0 29 33" fill="none" xmlns="http://www.w3.org/2000/svg">
<path fill-rule="evenodd" clip-rule="evenodd" d="M5.85809 22L5.43481 23.0667L1.27256 28.7333C0.91982 29.2 0.77873 29.8 0.91982 30.3333C1.06092 30.8667 1.55474 31.3333 2.11912 31.6C2.47185 31.8 2.89513 31.9333 3.45951 31.9333C4.37661 31.9333 5.29372 31.4667 5.717 30.8667L9.8793 25.0667L9.9498 25L10.0204 24.7333L5.85809 22ZM20.3907 19.3333C20.038 19.5333 19.6853 19.7333 19.262 19.8L27.0927 32H28.433L20.3907 19.3333ZM5.717 7.33333C5.08208 7.33333 4.37661 7.66667 3.88279 8.2L0.63764 12.2C0.355449 12.5333 0.214355 13 0.214355 13.4667V18C0.214355 18.8 0.84928 19.5333 1.69584 19.6667C2.82458 19.8 3.74169 19.0667 3.74169 18.0667V14.2667L5.15263 12.5333V18.6667C5.15263 19.3333 5.29372 19.8667 5.64645 20.4C5.717 20.5333 5.85809 20.6667 5.92864 20.8L10.232 24.0667L13.5477 30.9333C13.971 31.6667 14.747 32.0667 15.523 32.0667C15.8757 32.0667 16.2285 32 16.5107 31.8C17.0045 31.5333 17.4278 31.1333 17.6394 30.6C17.851 30.0667 17.7805 29.5333 17.4983 29L12.9128 20.2V12.6L17.851 17.6667C18.2038 18 18.6271 18.1333 19.0503 18.1333C19.6147 18.1333 20.1791 17.8667 20.3907 17.4667C20.8845 16.8667 20.814 16.1333 20.2496 15.4667L12.56 8.06667C12.0662 7.6 11.4313 7.33333 10.7964 7.33333H5.717ZM9.0327 0C6.9163 0 5.15263 1.66667 5.15263 3.66667C5.15263 5.66667 6.9163 7.33333 9.0327 7.33333C11.1491 7.33333 12.9128 5.66667 12.9128 3.66667C12.9128 1.66667 11.1491 0 9.0327 0Z" fill="black"/>
</svg>
