<svg width="19" height="18" viewBox="0 0 19 18" fill="none" xmlns="http://www.w3.org/2000/svg">
<path fill-rule="evenodd" clip-rule="evenodd" d="M12.8312 12.1522L13.2179 11.7074C14.0209 10.6868 14.5 9.3994 14.5 8C14.5 4.68629 11.8137 2 8.5 2C5.18629 2 2.5 4.68629 2.5 8C2.5 11.3137 5.18629 14 8.5 14C10.2024 14 11.7391 13.291 12.8312 12.1522ZM15.2252 12.3344L18.8981 15.5271L17.5133 17.1201L13.8569 13.9417C12.4388 15.2211 10.5604 16 8.5 16C4.08172 16 0.5 12.4183 0.5 8C0.5 3.58172 4.08172 0 8.5 0C12.9183 0 16.5 3.58172 16.5 8C16.5 9.5974 16.0318 11.0854 15.2252 12.3344Z" fill="black"/>
</svg>
