<svg width="36" height="37" viewBox="0 0 36 37" fill="none" xmlns="http://www.w3.org/2000/svg">
<g clip-path="url(#clip0_70_543)">
<g clip-path="url(#clip1_70_543)">
<path d="M3.57194 4.07355L3.57355 4.07194C4.79714 2.84556 6.37314 2.18775 8.68919 1.84759C11.0392 1.50245 14.0222 1.5 17.9967 1.5C21.9712 1.5 24.9545 1.50243 27.3055 1.84683C29.6222 2.18621 31.2004 2.84254 32.4273 4.06622C33.6543 5.29331 34.3122 6.87149 34.6524 9.18833C34.9976 11.5391 35 14.5222 35 18.4967C35 22.4712 34.9976 25.4543 34.6524 27.8051C34.3122 30.122 33.6543 31.7002 32.4273 32.9273C31.2003 34.1542 29.6207 34.8122 27.3027 35.1524C24.9511 35.4976 21.9679 35.5 17.9967 35.5C14.0255 35.5 11.0424 35.4976 8.69159 35.1524C6.37446 34.8122 4.79699 34.1543 3.57355 32.9281L3.57275 32.9273C2.34581 31.7003 1.68782 30.1207 1.3476 27.8027C1.00244 25.4511 1 22.4679 1 18.4967C1 14.5255 1.00244 11.5424 1.3476 9.19159C1.68781 6.87446 2.34571 5.29699 3.57194 4.07355Z" stroke="white" stroke-width="2"/>
<path d="M15.9053 28.5V20.002H13V16.625H15.9053V13.9643C15.9053 11.0734 17.7083 9.5 20.3409 9.5C21.6023 9.5 22.6856 9.59277 23 9.63359V12.6543H21.1742C19.7424 12.6543 19.4659 13.3223 19.4659 14.2982V16.625H22.697L22.2538 20.002H19.4659V28.5" fill="white"/>
</g>
</g>
<defs>
<clipPath id="clip0_70_543">
<rect width="36" height="36" fill="white" transform="translate(0 0.5)"/>
</clipPath>
<clipPath id="clip1_70_543">
<rect width="36" height="36" fill="white" transform="translate(0 0.5)"/>
</clipPath>
</defs>
</svg>
