<svg width="249" height="252" viewBox="0 0 249 252" fill="none" xmlns="http://www.w3.org/2000/svg">
<path fill-rule="evenodd" clip-rule="evenodd" d="M21.0637 1H228.301C239.373 1 248.354 10.0695 248.354 21.2677V230.732C248.354 241.924 239.373 251 228.301 251H21.0637C9.98444 251 1 241.924 1 230.732V21.2677C1 10.0695 9.98444 1 21.0637 1Z" fill="#FFD500"/>
<path d="M21.0637 1H228.301C239.373 1 248.354 10.0695 248.354 21.2677V230.732C248.354 241.924 239.373 251 228.301 251H21.0637C9.98444 251 1 241.924 1 230.732V21.2677C1 10.0695 9.98444 1 21.0637 1Z" stroke="#1A171B"/>
<path fill-rule="evenodd" clip-rule="evenodd" d="M166.28 13.4802C163.92 18.4281 165.1 24.0834 168.63 27.858C180.175 37.509 191.486 49.5336 190.299 65.7852C190.071 77.803 183.001 86.9914 177.115 96.8872C177.115 97.6014 177.819 97.8292 178.295 97.8292C185.123 95.2345 195.719 95.6698 201.609 99.9036L203.024 100.189C202.082 105.368 198.079 110.316 193.132 112.442C187.949 115.033 181.593 114.557 175.469 114.557C174.517 118.325 174.289 122.576 172.405 125.871C169.81 133.175 163.686 137.65 158.272 143.302C153.555 152.729 147.903 161.914 149.318 173.694C153.555 180.525 158.034 189.721 153.324 197.736H152.62C149.794 194.669 147.335 192.989 144.339 190.663C145.054 188.772 142.918 186.738 141.313 186.422C138.484 186.888 139.426 183.589 138.484 182.178C134.947 161.683 130.002 140 136.831 119.505C138.011 119.743 139.426 120.447 140.837 120.447C142.955 122.807 143.659 126.575 147.196 127.282C150.025 127.755 152.62 126.813 154.738 124.691C158.738 120.923 158.976 114.557 164.634 112.442C164.862 111.731 166.042 111.265 165.804 110.316C163.686 109.143 160.86 110.316 158.738 109.378C153.793 107.725 146.257 105.603 141.548 109.378C134.005 114.557 134.716 124.453 132.359 132.468C130.713 150.845 135.182 168.514 137.542 185.715C135.889 186.66 133.301 188.068 132.828 190.19C132.359 192.785 134.716 194.434 135.889 195.849C138.011 199.617 143.193 201.97 143.904 206.214C140.606 207.866 136.6 208.098 133.07 208.564L131.417 203.15C133.301 201.732 136.365 202.446 138.249 201.028C138.249 200.559 137.773 200.086 137.307 200.324C129.341 201.501 121.245 201.501 113.278 200.324L112.809 201.028C114.689 202.208 117.757 202.208 120.345 202.681C120.345 204.564 119.403 206.68 119.168 208.564C115.162 208.564 111.156 207.628 107.626 206.214C109.044 201.501 113.989 199.617 115.873 195.138C116.815 194.434 118.461 193.965 118.933 192.55C119.403 190.901 119.168 189.017 117.519 187.837L113.989 185.48C117.519 161.21 124.351 135.052 113.04 112.673C109.748 107.725 104.09 106.545 98.6759 107.494C94.1973 108.432 89.7255 110.316 85.0156 109.609C85.7195 112.2 88.0727 114.326 90.4294 115.264C92.5514 119.981 94.67 126.575 100.798 127.517C103.154 127.993 105.038 127.041 106.684 125.871L109.983 120.678L114.458 119.981C121.287 140.238 115.873 164.043 112.574 184.3L112.098 185.004C112.336 185.004 112.336 185.242 112.336 185.48C110.69 186.422 108.568 186.888 107.626 189.017C107.15 189.721 107.626 190.663 107.858 191.132C105.27 193.72 101.736 194.9 99.152 198.202C97.4959 197.733 97.4959 195.611 97.0232 194.434C94.1973 186.184 100.091 179.822 102.206 172.99C102.682 160.741 97.4959 149.43 89.7255 140.238C81.717 133.641 76.7691 125.157 75.8271 115.264C73.4705 114.557 70.4065 115.502 67.8187 115.033C61.6941 114.795 55.5662 113.615 51.8017 108.432C49.6798 106.317 48.9758 103.484 48.2685 100.655C55.1003 99.0024 61.9288 94.296 69.4646 97.6014C70.8826 97.8292 72.5251 99.2473 73.9432 97.8292C72.7666 94.2994 69.7026 91.4666 68.0499 88.1714C60.9868 78.2756 58.1541 63.6632 62.8708 51.6488C65.9347 41.5217 75.8271 34.6899 82.659 27.3752C85.7195 23.8453 86.1888 18.1935 84.3049 14.1876C85.0156 13.9495 85.9576 14.6636 86.6615 15.3642C89.9601 19.1355 91.3714 24.556 89.722 29.5039C85.9576 39.1549 73.9432 45.2896 73.9432 56.6001C74.1812 69.0804 81.0097 78.7449 88.7835 88.1714C90.1913 88.4027 90.6674 86.9914 91.844 86.7568C95.6119 85.3387 99.8559 86.2875 102.682 88.4027C106.922 86.5255 112.812 86.7568 116.342 89.5895C121.287 86.7568 128.822 86.2909 133.77 89.3515C137.307 87.2227 142.489 85.8148 146.727 87.9334C148.614 89.5895 150.025 86.5255 151.909 86.2875C155.208 85.1075 158.738 86.5255 161.802 87.4607C167.926 81.5708 171.694 74.0283 174.758 66.4959C176.411 60.5992 177.58 52.5942 173.813 47.4048C169.341 39.1549 159.448 33.9792 160.152 23.8453C160.152 19.6081 162.274 15.3676 166.28 13.4802Z" fill="#1A171B"/>
<path fill-rule="evenodd" clip-rule="evenodd" d="M74.6471 106.545C75.1232 108.198 73.9432 109.609 72.5285 109.844C65.4586 111.731 58.1609 110.082 52.9749 104.899L52.5022 103.481C56.0389 103.015 59.1028 101.597 62.4049 100.659C63.8127 100.421 65.4586 100.659 67.1113 100.893C70.1753 101.597 73.4705 103.481 74.6471 106.545ZM198.314 103.015C196.668 107.014 192.19 108.667 188.184 109.847C184.181 110.561 178.764 110.789 176.407 107.014C175.465 104.899 177.587 103.481 178.995 102.311C185.123 99.0093 192.19 101.597 198.314 103.015Z" fill="#FFD500"/>
<path fill-rule="evenodd" clip-rule="evenodd" d="M196.192 103.719C193.839 107.722 188.656 108.432 184.178 109.136C181.828 108.67 179.002 108.898 177.822 106.317C177.584 104.426 179.944 103.723 181.114 102.774C186.062 100.89 191.486 102.774 196.192 103.723V103.719ZM73.4705 106.783C71.8246 109.847 67.584 109.136 64.2854 108.898C60.7522 108.432 57.4536 107.49 54.8657 104.661C60.5175 101.839 69.468 100.42 73.4705 106.783ZM162.978 111.493C162.512 112.911 160.394 113.615 158.976 114.326C156.622 115.499 153.793 115.499 151.678 117.148C152.62 118.325 153.324 120.447 152.382 121.861C151.44 123.511 149.321 123.749 147.672 123.273C145.553 122.338 145.315 119.977 145.553 118.094C142.955 118.094 139.187 120.209 137.542 117.145C137.542 113.377 141.309 110.786 144.139 109.378C150.736 106.545 156.388 111.731 162.978 111.493ZM111.867 113.85C113.044 114.798 113.513 116.444 113.275 117.855C110.687 119.981 107.623 117.617 105.035 117.855C105.504 119.501 105.739 121.154 105.035 122.572C103.858 123.98 101.736 123.749 100.325 123.276C98.6725 122.334 97.9686 120.45 98.6725 118.566C98.6725 117.852 99.8525 117.386 99.6145 116.682C95.3807 115.264 90.1914 115.033 87.8381 111.024C94.9046 111.5 101.271 106.31 108.099 110.085L111.867 113.85ZM115.737 191.737C115.268 198.338 106.317 200.926 105.606 207.523C103.96 214.828 107.259 222.608 113.853 226.845C121.395 230.851 132.223 231.089 139.296 226.141C145.417 221.421 147.774 214.362 146.356 206.816C144.71 200.691 136.464 197.862 135.994 191.499C136.702 190.088 138.109 189.853 139.528 189.853C141.18 189.622 141.884 191.499 143.302 191.737C149.893 195.505 155.079 202.337 156.248 209.642C158.37 219.775 153.664 229.671 145.183 235.323C135.76 242.158 120.919 242.631 110.551 237.445C100.658 233.439 94.772 223.309 95.01 213.413C95.4759 205.401 99.0126 198.1 106.079 194.332C109.143 192.686 112.442 186.789 115.737 191.737Z" fill="#1A171B"/>
<path fill-rule="evenodd" clip-rule="evenodd" d="M129.533 202.677C131.179 209.512 134.716 217.286 130.941 223.887C128.826 226.002 125.527 226.709 122.701 225.298C121.049 224.591 119.641 223.176 119.403 221.292C118.461 214.926 120.345 208.571 122.225 202.681L129.533 202.677Z" fill="#1A171B"/>
</svg>
