<svg width="37" height="37" viewBox="0 0 37 37" fill="none" xmlns="http://www.w3.org/2000/svg">
<g clip-path="url(#clip0_70_556)">
<g clip-path="url(#clip1_70_556)">
<path fill-rule="evenodd" clip-rule="evenodd" d="M5.03146 4.77824L5.02824 4.78146C4.0086 5.79878 3.4092 7.1423 3.08699 9.33686C2.75489 11.5988 2.75 14.497 2.75 18.4967C2.75 22.4964 2.75489 25.3947 3.087 27.6575C3.40922 29.8528 4.00879 31.1991 5.02985 32.2201L5.03147 32.2218C6.04878 33.2414 7.3923 33.8408 9.58686 34.163C11.8488 34.4951 14.747 34.5 18.7467 34.5C22.7464 34.5 25.6447 34.4951 27.9075 34.163C30.1029 33.8408 31.4491 33.2412 32.4701 32.2201C33.4915 31.1988 34.0909 29.8539 34.413 27.6599C34.7451 25.398 34.75 22.4998 34.75 18.4967C34.75 14.4937 34.7451 11.5955 34.413 9.3336C34.091 7.14018 33.4918 5.79538 32.4709 4.77411C31.4499 3.75577 30.1047 3.1577 27.9105 2.83627C25.6482 2.50487 22.7496 2.5 18.7467 2.5C14.7437 2.5 11.8455 2.50489 9.58451 2.83698C7.3913 3.1591 6.04908 3.7583 5.03146 4.77824ZM33.8844 3.35911C36.75 6.22475 36.75 10.6048 36.75 18.4967C36.75 26.3887 36.75 30.7687 33.8844 33.6344C31.0187 36.5 26.6321 36.5 18.7467 36.5C10.8613 36.5 6.47475 36.5 3.61564 33.6344C0.75 30.7687 0.75 26.3821 0.75 18.4967C0.75 10.6113 0.75 6.22475 3.61564 3.36564C6.47475 0.5 10.8548 0.5 18.7467 0.5C26.6387 0.5 31.0187 0.5 33.8844 3.35911Z" fill="white"/>
<path fill-rule="evenodd" clip-rule="evenodd" d="M18.75 24.5C22.0637 24.5 24.75 21.8137 24.75 18.5C24.75 15.1863 22.0637 12.5 18.75 12.5C15.4363 12.5 12.75 15.1863 12.75 18.5C12.75 21.8137 15.4363 24.5 18.75 24.5ZM18.75 26.5C23.1683 26.5 26.75 22.9183 26.75 18.5C26.75 14.0817 23.1683 10.5 18.75 10.5C14.3317 10.5 10.75 14.0817 10.75 18.5C10.75 22.9183 14.3317 26.5 18.75 26.5Z" fill="white"/>
<path d="M27.25 11.5C28.6307 11.5 29.75 10.3807 29.75 9C29.75 7.61929 28.6307 6.5 27.25 6.5C25.8693 6.5 24.75 7.61929 24.75 9C24.75 10.3807 25.8693 11.5 27.25 11.5Z" fill="white"/>
</g>
</g>
<defs>
<clipPath id="clip0_70_556">
<rect width="36" height="36" fill="white" transform="translate(0.75 0.5)"/>
</clipPath>
<clipPath id="clip1_70_556">
<rect width="36" height="36" fill="white" transform="translate(0.75 0.5)"/>
</clipPath>
</defs>
</svg>
