<svg width="172" height="76" viewBox="0 0 172 76" fill="none" xmlns="http://www.w3.org/2000/svg">
<g clip-path="url(#clip0_2_8887)">
<path fill-rule="evenodd" clip-rule="evenodd" d="M164 74H172V24H164V74ZM110.519 18.443C110.56 18.484 107.955 18.486 107.924 18.443C107.955 18.523 105.457 13.291 105.457 13.291L98.991 13.312L96.807 18.436C96.837 18.48 94.167 18.48 94.157 18.436L100.852 0.960014C100.918 1.01501 103.326 0.992014 103.293 0.978014C103.293 0.978014 110.486 18.483 110.518 18.442L110.519 18.443ZM104.72 10.925C104.72 10.96 99.946 10.896 99.946 10.896C99.969 10.96 102.179 4.90801 102.179 4.90801L104.72 10.925ZM137.538 9.77101C137.538 4.71201 141.598 0.614014 146.602 0.614014C151.611 0.614014 155.669 4.71201 155.669 9.77101C155.669 14.828 151.611 18.926 146.602 18.926C141.598 18.926 137.538 14.828 137.538 9.77101ZM140.089 9.77101C140.089 6.13701 143.004 3.19101 146.602 3.19101C150.201 3.19101 153.118 6.13701 153.118 9.77101C153.118 13.404 150.201 16.351 146.602 16.351C143.004 16.351 140.089 13.404 140.089 9.77101ZM140.963 23.399C146.807 23.399 156.481 27.257 156.556 39.295C156.481 49.709 149.502 53.545 143.147 54.483L157.446 74.229V74.369C154.237 74.439 151.098 74.369 147.889 74.369C147.889 74.369 131.007 50.907 130.938 51.047V74.41C131.077 74.482 123.263 74.513 123.265 74.44L123.313 23.4L140.963 23.399ZM149.379 39.479C149.379 45.384 145.055 49.066 139.855 49.066H130.812V30.2H139.855C145.231 30.2 149.379 34.229 149.379 39.479ZM137.198 0.962014C137.181 0.979014 137.167 3.29201 137.181 3.29201C137.167 3.29201 133.947 3.26701 133.964 3.29201C133.964 3.29201 133.968 18.482 133.964 18.444C134.005 18.483 131.454 18.444 131.408 18.436C131.381 18.444 131.418 3.33201 131.418 3.33201C131.418 3.33201 127.939 3.36701 128.02 3.33201V0.979014C128.049 0.997014 137.217 0.979014 137.198 0.962014ZM84.177 1.01601C84.213 1.05401 84.177 9.52001 84.177 9.52001C84.177 9.55901 90.927 1.01601 90.914 1.03301C90.889 1.01601 94.044 0.967014 94.032 1.01601C94.032 1.01601 87.32 9.89001 87.354 9.83901C87.32 9.89001 93.818 18.523 93.814 18.479C93.854 18.562 90.63 18.447 90.634 18.443C90.594 18.41 84.14 10.333 84.146 10.263C84.146 10.263 84.153 18.447 84.14 18.48C84.188 18.558 81.578 18.488 81.556 18.48C81.543 18.562 81.556 1.01601 81.564 0.963014C81.484 1.01601 84.196 1.03301 84.177 1.01601ZM114.869 51.294C114.869 58.128 115.036 66.186 109.316 71.048C104.851 75.062 98.085 76.473 92.156 74.429C86.574 72.457 81.83 66.891 81.481 60.833L81.506 23.221L88.686 23.318V46.814C89.252 54.478 86.225 62.945 93.551 67.454C96.621 68.934 100.944 69.004 103.665 66.609C106.456 64.354 107.338 60.991 107.269 57.468V23.645L114.869 23.54V51.294ZM171.656 0.996014C171.656 0.996014 171.645 18.468 171.656 18.468C171.656 18.492 169.266 18.468 169.266 18.468L159.981 5.93201C159.981 5.93201 159.92 18.472 159.981 18.468C159.92 18.472 157.595 18.468 157.595 18.468V0.996014H159.981L169.266 13.86V0.996014H171.656ZM125.945 0.996014C125.945 0.996014 125.936 18.468 125.945 18.468C125.945 18.492 123.555 18.468 123.555 18.468L114.27 5.93201C114.27 5.93201 114.209 18.472 114.27 18.468C114.209 18.472 111.884 18.468 111.884 18.468V0.996014H114.27L123.555 13.86V0.996014H125.945Z" fill="#1A171B"/>
<path fill-rule="evenodd" clip-rule="evenodd" d="M6.44297 1.354H67.384C70.64 1.354 73.281 4.021 73.281 7.314V68.91C73.281 72.201 70.64 74.87 67.384 74.87H6.44297C3.18497 74.87 0.542969 72.201 0.542969 68.91V7.314C0.542969 4.021 3.18497 1.354 6.44297 1.354Z" fill="#FFD500"/>
<path d="M6.44297 1.354H67.384C70.64 1.354 73.281 4.021 73.281 7.314V68.91C73.281 72.201 70.64 74.87 67.384 74.87H6.44297C3.18497 74.87 0.542969 72.201 0.542969 68.91V7.314C0.542969 4.021 3.18497 1.354 6.44297 1.354Z" stroke="#1A171B"/>
<path fill-rule="evenodd" clip-rule="evenodd" d="M49.1459 5.02399C48.4519 6.47899 48.7989 8.14199 49.8369 9.25199C53.2319 12.09 56.5579 15.626 56.2089 20.405C56.1419 23.939 54.0629 26.641 52.3319 29.551C52.3319 29.761 52.5389 29.828 52.6789 29.828C54.6869 29.065 57.8029 29.193 59.5349 30.438L59.9509 30.522C59.6739 32.045 58.4969 33.5 57.0419 34.125C55.5179 34.887 53.6489 34.747 51.8479 34.747C51.5679 35.855 51.5009 37.105 50.9469 38.074C50.1839 40.222 48.3829 41.538 46.7909 43.2C45.4039 45.972 43.7419 48.673 44.1579 52.137C45.4039 54.146 46.7209 56.85 45.3359 59.207H45.1289C44.2979 58.305 43.5749 57.811 42.6939 57.127C42.9039 56.571 42.2759 55.973 41.8039 55.88C40.9719 56.017 41.2489 55.047 40.9719 54.632C39.9319 48.605 38.4779 42.229 40.4859 36.202C40.8329 36.272 41.2489 36.479 41.6639 36.479C42.2869 37.173 42.4939 38.281 43.5339 38.489C44.3659 38.628 45.1289 38.351 45.7519 37.727C46.9279 36.619 46.9979 34.747 48.6619 34.125C48.7289 33.916 49.0759 33.779 49.0059 33.5C48.3829 33.155 47.5519 33.5 46.9279 33.224C45.4739 32.738 43.2579 32.114 41.8729 33.224C39.6549 34.747 39.8639 37.657 39.1709 40.014C38.6869 45.418 40.0009 50.614 40.6949 55.672C40.2089 55.95 39.4479 56.364 39.3089 56.988C39.1709 57.751 39.8639 58.236 40.2089 58.652C40.8329 59.76 42.3569 60.452 42.5659 61.7C41.5959 62.186 40.4179 62.254 39.3799 62.391L38.8939 60.799C39.4479 60.382 40.3489 60.592 40.9029 60.175C40.9029 60.037 40.7629 59.898 40.6259 59.968C38.2832 60.314 35.9025 60.314 33.5599 59.968L33.4219 60.175C33.9749 60.522 34.8769 60.522 35.6379 60.661C35.6379 61.215 35.3609 61.837 35.2919 62.391C34.1139 62.391 32.9359 62.116 31.8979 61.7C32.3149 60.314 33.7689 59.76 34.3229 58.443C34.5999 58.236 35.0839 58.098 35.2229 57.682C35.3609 57.197 35.2919 56.643 34.8069 56.296L33.7689 55.603C34.8069 48.466 36.8159 40.774 33.4899 34.193C32.5219 32.738 30.8579 32.391 29.2659 32.67C27.9489 32.946 26.6339 33.5 25.2489 33.292C25.4559 34.054 26.1479 34.679 26.8409 34.955C27.4649 36.342 28.0879 38.281 29.8899 38.558C30.5829 38.698 31.1369 38.418 31.6209 38.074L32.5909 36.547L33.9069 36.342C35.9149 42.299 34.3229 49.299 33.3529 55.256L33.2129 55.463C33.2829 55.463 33.2829 55.533 33.2829 55.603C32.7989 55.88 32.1749 56.017 31.8979 56.643C31.7579 56.85 31.8979 57.127 31.9659 57.265C31.2049 58.026 30.1659 58.373 29.4059 59.344C28.9189 59.206 28.9189 58.582 28.7799 58.236C27.9489 55.81 29.6819 53.939 30.3039 51.93C30.4439 48.328 28.9189 45.002 26.6339 42.299C24.2789 40.359 22.8239 37.864 22.5469 34.955C21.8539 34.747 20.9529 35.025 20.1919 34.887C18.3909 34.817 16.5889 34.47 15.4819 32.946C14.8579 32.324 14.6509 31.491 14.4429 30.659C16.4519 30.173 18.4599 28.789 20.6759 29.761C21.0929 29.828 21.5759 30.245 21.9929 29.828C21.6469 28.79 20.7459 27.957 20.2599 26.988C18.1829 24.078 17.3499 19.781 18.7369 16.248C19.6379 13.27 22.5469 11.261 24.5559 9.10999C25.4559 8.07199 25.5939 6.40999 25.0399 5.23199C25.2489 5.16199 25.5259 5.37199 25.7329 5.57799C26.7029 6.68699 27.1179 8.28099 26.6329 9.73599C25.5259 12.574 21.9929 14.378 21.9929 17.704C22.0629 21.374 24.0709 24.216 26.3569 26.988C26.7709 27.056 26.9109 26.641 27.2569 26.572C28.3649 26.155 29.6129 26.434 30.4439 27.056C31.6909 26.504 33.4229 26.572 34.4609 27.405C35.9149 26.572 38.1309 26.435 39.5859 27.335C40.6259 26.709 42.1499 26.295 43.3959 26.918C43.9509 27.405 44.3659 26.504 44.9199 26.434C45.8899 26.087 46.9279 26.504 47.8289 26.779C49.6299 25.047 50.7379 22.829 51.6389 20.614C52.1249 18.88 52.4689 16.526 51.3609 15C50.0459 12.574 47.1369 11.052 47.3439 8.07199C47.3439 6.82599 47.9679 5.57899 49.1459 5.02399Z" fill="#1A171B"/>
<path fill-rule="evenodd" clip-rule="evenodd" d="M22.2 32.391C22.34 32.877 21.993 33.292 21.577 33.361C19.498 33.916 17.352 33.431 15.827 31.907L15.688 31.49C16.728 31.353 17.629 30.936 18.6 30.66C19.014 30.59 19.498 30.66 19.984 30.729C20.885 30.936 21.854 31.49 22.2 32.391ZM58.566 31.353C58.082 32.529 56.765 33.015 55.587 33.362C54.41 33.572 52.817 33.639 52.124 32.529C51.847 31.907 52.471 31.49 52.885 31.146C54.687 30.175 56.765 30.936 58.566 31.353Z" fill="#FFD500"/>
<path fill-rule="evenodd" clip-rule="evenodd" d="M57.9418 31.56C57.2498 32.737 55.7258 32.946 54.4088 33.153C53.7178 33.016 52.8868 33.083 52.5398 32.324C52.4698 31.768 53.1638 31.561 53.5078 31.282C54.9628 30.728 56.5578 31.282 57.9418 31.561V31.56ZM21.8538 32.461C21.3698 33.362 20.1228 33.153 19.1528 33.083C18.1138 32.946 17.1438 32.669 16.3828 31.837C18.0448 31.007 20.6768 30.59 21.8538 32.461ZM48.1748 33.846C48.0378 34.263 47.4148 34.47 46.9978 34.679C46.3058 35.024 45.4738 35.024 44.8518 35.509C45.1288 35.855 45.3358 36.479 45.0588 36.895C44.7818 37.38 44.1588 37.45 43.6738 37.31C43.0508 37.035 42.9808 36.341 43.0508 35.787C42.2868 35.787 41.1788 36.409 40.6948 35.508C40.6948 34.4 41.8028 33.638 42.6348 33.224C44.5748 32.391 46.2368 33.916 48.1748 33.846ZM33.1448 34.539C33.4908 34.818 33.6288 35.302 33.5588 35.717C32.7978 36.342 31.8968 35.647 31.1358 35.717C31.2738 36.201 31.3428 36.687 31.1358 37.104C30.7898 37.518 30.1658 37.45 29.7508 37.311C29.2648 37.034 29.0578 36.48 29.2648 35.926C29.2648 35.716 29.6118 35.579 29.5418 35.372C28.2968 34.955 26.7708 34.887 26.0788 33.708C28.1568 33.848 30.0288 32.322 32.0368 33.432L33.1448 34.539ZM34.2828 57.443C34.1448 59.384 31.5128 60.145 31.3038 62.085C30.8198 64.233 31.7898 66.521 33.7288 67.767C35.9468 68.945 39.1308 69.015 41.2108 67.56C43.0108 66.172 43.7038 64.096 43.2868 61.877C42.8028 60.076 40.3778 59.244 40.2398 57.373C40.4478 56.958 40.8618 56.889 41.2788 56.889C41.7648 56.821 41.9718 57.373 42.3888 57.443C44.3268 58.551 45.8518 60.56 46.1958 62.708C46.8198 65.688 45.4358 68.598 42.9418 70.26C40.1708 72.27 35.8068 72.409 32.7578 70.884C29.8488 69.706 28.1178 66.727 28.1878 63.817C28.3248 61.461 29.3648 59.314 31.4428 58.206C32.3438 57.722 33.3138 55.988 34.2828 57.443Z" fill="#1A171B"/>
<path fill-rule="evenodd" clip-rule="evenodd" d="M38.3398 60.66C38.8238 62.67 39.8638 64.956 38.7538 66.897C38.1318 67.519 37.1618 67.727 36.3308 67.312C35.8448 67.104 35.4308 66.688 35.3608 66.134C35.0838 64.262 35.6378 62.393 36.1908 60.661L38.3398 60.66Z" fill="#1A171B"/>
</g>
<defs>
<clipPath id="clip0_2_8887">
<rect width="172" height="76" fill="white"/>
</clipPath>
</defs>
</svg>
